<?xml version="1.0" encoding="utf-8"?>
<!-- Generator: Adobe Illustrator 23.1.1, SVG Export Plug-In . SVG Version: 6.00 Build 0)  -->
<svg version="1.1" id="eab74653-e4ff-4b0f-8495-b71ce9943559"
	 xmlns="http://www.w3.org/2000/svg" xmlns:xlink="http://www.w3.org/1999/xlink" x="0px" y="0px" viewBox="0 0 899.9 731.2"
	 style="enable-background:new 0 0 899.9 731.2;" xml:space="preserve">
<style type="text/css">
	.st0{fill:#FFB6B6;}
	.st1{fill:#2F2E41;}
	.st2{fill:#FFB8B8;}
	.st3{fill:#3F3D56;}
	.st4{fill:#F0F0F0;}
	.st5{fill:#16C1C7;}
	.st6{fill:#E6E6E6;}
	.st7{fill:#FFFFFF;}
	.st8{fill:#CACACA;}
</style>
<path class="st0" d="M256.4,462.7c-5.2-1.9-7.8-7.7-5.9-12.9c0.2-0.6,0.5-1.1,0.8-1.6l-23.1-27.3l18.4-2.2l19.1,26.2
	c4.6,3.2,5.8,9.5,2.6,14.1C265.7,462.9,260.8,464.4,256.4,462.7z"/>
<polygon class="st0" points="161.4,718.5 173.7,718.5 179.5,671.2 161.4,671.2 "/>
<path class="st1" d="M158.3,714.5h3.5l13.5-5.5l7.2,5.5l0,0c8.5,0,15.4,6.9,15.4,15.4v0.5h-39.5L158.3,714.5z"/>
<polygon class="st0" points="208.9,710.8 220.9,713.5 237,668.6 219.4,664.6 "/>
<path class="st1" d="M206.8,706.2l3.4,0.8l14.3-2.4l5.8,6.9l0,0c8.3,1.9,13.5,10.1,11.6,18.4l-0.1,0.5l-38.6-8.7L206.8,706.2z"/>
<path class="st1" d="M139,475.2l11.1,124.2c0,0-4.2,74.6,9.2,100.8h19.4l9.6-107.6l1.2-72.2l41.7,60.9l-26.5,117.2l23.9,2.1
	l43.1-127.1l-47.3-119.4L139,475.2z"/>
<ellipse transform="matrix(9.853758e-02 -0.9951 0.9951 9.853758e-02 -111.8289 374.1509)" class="st2" cx="150.6" cy="248.8" rx="28.6" ry="28.6"/>
<path class="st3" d="M210.6,304.7l-33.2-10.1l-4.3-13.3l-35.6,5.8l-7.6,13l-24.5,22.8l28.7,129.8l-0.9,28.3c0,0,18.4,8.3,98-10.8
	c1-0.2-1-1.2-1-1.2L210.6,304.7z"/>
<path class="st3" d="M242.2,447.8l-38.9-52.1l-11-92.4l0.3-0.2c10-4.8,22.1-0.6,26.9,9.4c1.2,2.5,1.9,5.2,2,7.9l2.3,57.1l38.7,51
	L242.2,447.8z"/>
<path class="st1" d="M120.9,265.1c-0.2-0.3-0.4-0.5-0.6-0.8c-0.1,0.2-0.1,0.3-0.2,0.5L120.9,265.1z"/>
<path class="st1" d="M179,227.9c-1.9-4.2-5.3-7.5-9.5-9.2s-8.9-1.7-13.1,0c-3.8-2.4-8-4.3-12.4-4.5s-9.1,1.4-11.8,5
	c-0.6,1-1.3,1.9-2.1,2.7c-2.2,2-5.5,1.7-8.4,1.3c1.3,1.1,2.6,2.2,3.9,3.4c-1.6,0.4-3.2,0.8-4.7,1.2c1.8,1.1,3.7,2.2,5.5,3.4
	c-5.4,3.2-7.8,10.2-7.1,16.6c0.6,6,3.5,11.6,7,16.5c1.4-2.9,1.1-6.4,1.1-9.7c0-3.5,0.6-7.5,3.4-9.4c1.9-1.3,4.3-1.4,6.6-1.4
	c11.5,0.1,22.9,0.8,34.3,2.1c1.5,0.1,3.1,0.5,4.4,1.3c2.5,1.7,3,5.3,3.3,8.4c1.3-5.1,2-10.4,1.9-15.7
	C181.3,235.7,180.6,231.7,179,227.9z"/>
<circle class="st4" cx="176.2" cy="530" r="45"/>
<path class="st3" d="M176.2,484c-2.3,0-4.6,0.2-6.9,0.5c-1.2,0.2-2.3,0.4-3.4,0.7c-24.7,5.7-40.2,30.4-34.5,55.1
	c2.2,9.6,7.5,18.3,15,24.7c0.8,0.7,1.5,1.3,2.4,1.9c20.4,15.2,49.2,11,64.4-9.4c15.2-20.4,11-49.2-9.4-64.4
	C195.8,487.2,186.1,484,176.2,484L176.2,484z M176.2,574c-9.4,0-18.5-3-26-8.5c-0.8-0.6-1.6-1.2-2.4-1.9
	c-18.6-15.7-20.9-43.4-5.3-62c6.4-7.6,15.2-12.8,24.9-14.7c1.1-0.2,2.2-0.4,3.4-0.5c1.8-0.2,3.6-0.3,5.4-0.3c24.3,0,44,19.7,44,44
	S200.5,574,176.2,574L176.2,574L176.2,574z"/>
<path class="st5" d="M198.2,521h-44c-1.7,0-3-1.3-3-3l0,0c0-1.7,1.3-3,3-3h44c1.7,0,3,1.3,3,3l0,0C201.2,519.7,199.9,521,198.2,521z
	"/>
<path class="st5" d="M198.2,533h-44c-1.7,0-3-1.3-3-3l0,0c0-1.7,1.3-3,3-3h44c1.7,0,3,1.3,3,3l0,0C201.2,531.7,199.9,533,198.2,533z
	"/>
<path class="st5" d="M198.2,545h-44c-1.7,0-3-1.3-3-3l0,0c0-1.7,1.3-3,3-3h44c1.7,0,3,1.3,3,3l0,0C201.2,543.7,199.9,545,198.2,545z
	"/>
<path class="st0" d="M179.1,497.8c-5.5-0.8-9.3-6-8.4-11.5c0.1-0.6,0.2-1.2,0.4-1.7l-28.1-22l17.6-5.9l24,21.8
	c5.2,2.2,7.6,8.1,5.4,13.2C188.2,496,183.7,498.5,179.1,497.8L179.1,497.8z"/>
<path class="st3" d="M122.7,322.5l-17.3,0.4c-6.9,6.3-10.8,15.3-10.7,24.6v81.9l65,54.4l21-20.4l-48.4-52.7L122.7,322.5z"/>
<rect x="256" y="127.6" class="st6" width="643.9" height="412.4"/>
<rect x="274.4" y="179.3" class="st7" width="607" height="336.2"/>
<rect x="255.7" y="127.2" class="st5" width="643.9" height="27.4"/>
<circle class="st7" cx="276.1" cy="141.2" r="5.1"/>
<circle class="st7" cx="295.3" cy="141.2" r="5.1"/>
<circle class="st7" cx="314.5" cy="141.2" r="5.1"/>
<rect x="512.5" y="214.2" class="st5" width="130" height="73.3"/>
<rect x="512.5" y="308" class="st6" width="130" height="78.9"/>
<rect x="670.3" y="214.2" class="st6" width="156" height="116.1"/>
<rect x="670.3" y="364.5" class="st5" width="156" height="116.1"/>
<rect x="330.3" y="214.2" class="st6" width="156" height="116.1"/>
<polygon class="st3" points="512.5,89.8 570.9,245.1 572.8,244.3 515,90.5 "/>
<polygon class="st3" points="749.5,421.6 705.4,587.2 707.1,589.3 751.5,422.1 "/>
<path class="st6" d="M483.2,400.6h-150c-1.9,0-3.5-1.6-3.5-3.5s1.6-3.5,3.5-3.5h150c1.9,0,3.5,1.6,3.5,3.5S485.2,400.6,483.2,400.6z
	"/>
<path class="st6" d="M483.2,380.6h-150c-1.9,0-3.5-1.6-3.5-3.5s1.6-3.5,3.5-3.5h150c1.9,0,3.5,1.6,3.5,3.5S485.2,380.6,483.2,380.6z
	"/>
<path class="st6" d="M483.2,420.6h-150c-1.9,0-3.5-1.6-3.5-3.5s1.6-3.5,3.5-3.5h150c1.9,0,3.5,1.6,3.5,3.5S485.2,420.6,483.2,420.6z
	"/>
<path class="st6" d="M483.2,440.6h-150c-1.9,0-3.5-1.6-3.5-3.5s1.6-3.5,3.5-3.5h150c1.9,0,3.5,1.6,3.5,3.5S485.2,440.6,483.2,440.6z
	"/>
<path class="st6" d="M483.2,460.6h-150c-1.9,0-3.5-1.6-3.5-3.5s1.6-3.5,3.5-3.5h150c1.9,0,3.5,1.6,3.5,3.5S485.2,460.6,483.2,460.6z
	"/>
<path class="st6" d="M483.2,480.6h-150c-1.9,0-3.5-1.6-3.5-3.5s1.6-3.5,3.5-3.5h150c1.9,0,3.5,1.6,3.5,3.5S485.2,480.6,483.2,480.6z
	"/>
<path class="st6" d="M639.5,420.6h-124c-1.9,0-3.5-1.6-3.5-3.5s1.6-3.5,3.5-3.5h124c1.9,0,3.5,1.6,3.5,3.5S641.4,420.6,639.5,420.6z
	"/>
<path class="st6" d="M639.5,440.6h-124c-1.9,0-3.5-1.6-3.5-3.5s1.6-3.5,3.5-3.5h124c1.9,0,3.5,1.6,3.5,3.5S641.4,440.6,639.5,440.6z
	"/>
<path class="st6" d="M639.5,460.6h-124c-1.9,0-3.5-1.6-3.5-3.5s1.6-3.5,3.5-3.5h124c1.9,0,3.5,1.6,3.5,3.5S641.4,460.6,639.5,460.6z
	"/>
<path class="st6" d="M639.5,480.6h-124c-1.9,0-3.5-1.6-3.5-3.5s1.6-3.5,3.5-3.5h124c1.9,0,3.5,1.6,3.5,3.5S641.4,480.6,639.5,480.6z
	"/>
<circle class="st4" cx="486.7" cy="43" r="45"/>
<path class="st3" d="M486.2-3c-2.3,0-4.6,0.2-6.9,0.5c-1.2,0.2-2.3,0.4-3.4,0.7c-24.7,5.7-40.2,30.4-34.5,55.1
	c2.2,9.6,7.5,18.3,15,24.7c0.8,0.6,1.5,1.3,2.4,1.9c20.4,15.2,49.2,11,64.4-9.4s11-49.2-9.4-64.4C505.8,0.2,496.1-3,486.2-3L486.2-3
	z M486.2,87c-9.4,0-18.5-3-26-8.5c-0.8-0.6-1.6-1.2-2.4-1.9c-18.6-15.7-20.9-43.4-5.3-62c6.5-7.6,15.2-12.8,25-14.7
	c1.1-0.2,2.2-0.4,3.4-0.6c1.8-0.2,3.6-0.3,5.4-0.3c24.3,0,44,19.7,44,44S510.5,87,486.2,87L486.2,87z"/>
<path class="st5" d="M508.3,38.2h-44c-1.7,0-3-1.3-3-3l0,0c0-1.7,1.3-3,3-3h44c1.7,0,3,1.3,3,3l0,0C511.3,36.9,510,38.2,508.3,38.2z
	"/>
<path class="st5" d="M508.3,49h-44c-1.7,0-3-1.3-3-3l0,0c0-1.7,1.3-3,3-3h44c1.7,0,3,1.3,3,3l0,0C511.3,47.7,510,49,508.3,49z"/>
<path class="st5" d="M508.3,61.3h-44c-1.7,0-3-1.3-3-3l0,0c0-1.7,1.3-3,3-3h44c1.7,0,3,1.3,3,3l0,0C511.3,60,510,61.3,508.3,61.3z"
	/>
<circle class="st4" cx="700.2" cy="628" r="45"/>
<path class="st3" d="M700.2,582c-2.3,0-4.6,0.2-6.9,0.5c-1.2,0.2-2.3,0.4-3.4,0.7c-24.7,5.7-40.2,30.4-34.5,55.1
	c2.2,9.6,7.5,18.3,15,24.7c0.8,0.7,1.5,1.3,2.4,1.9c20.4,15.2,49.2,11,64.4-9.4s11-49.2-9.4-64.4C719.8,585.2,710.1,582,700.2,582z
	 M700.2,672c-9.4,0-18.5-3-26-8.5c-0.8-0.6-1.6-1.2-2.4-1.9c-18.6-15.7-20.9-43.4-5.3-62c6.4-7.6,15.2-12.8,24.9-14.7
	c1.1-0.2,2.2-0.4,3.4-0.5c1.8-0.2,3.6-0.3,5.4-0.3c24.3,0,44,19.7,44,44S724.5,672,700.2,672L700.2,672z"/>
<path class="st5" d="M722.2,619h-44c-1.7,0-3-1.3-3-3l0,0c0-1.7,1.3-3,3-3h44c1.7,0,3,1.3,3,3l0,0C725.2,617.7,723.9,619,722.2,619z
	"/>
<path class="st5" d="M722.2,631h-44c-1.7,0-3-1.3-3-3l0,0c0-1.7,1.3-3,3-3h44c1.7,0,3,1.3,3,3l0,0C725.2,629.7,723.9,631,722.2,631z
	"/>
<path class="st5" d="M722.2,643h-44c-1.7,0-3-1.3-3-3l0,0c0-1.7,1.3-3,3-3h44c1.7,0,3,1.3,3,3l0,0C725.2,641.7,723.9,643,722.2,643z
	"/>
<path class="st8" d="M347.5,731.2H1.2c-0.7,0-1.2-0.5-1.2-1.2s0.5-1.2,1.2-1.2h346.3c0.7,0,1.2,0.5,1.2,1.2S348.1,731.2,347.5,731.2
	z"/>
</svg>
