<?xml version="1.0" encoding="utf-8"?>
<!-- Generator: Adobe Illustrator 23.1.1, SVG Export Plug-In . SVG Version: 6.00 Build 0)  -->
<svg version="1.1" id="e293bfe8-23da-43ce-bbf1-7b46e1446f8b"
	 xmlns="http://www.w3.org/2000/svg" xmlns:xlink="http://www.w3.org/1999/xlink" x="0px" y="0px" viewBox="0 0 967.4 724.2"
	 style="enable-background:new 0 0 967.4 724.2;" xml:space="preserve">
<style type="text/css">
	.st0{fill:#E6E6E6;}
	.st1{fill:#FFFFFF;}
	.st2{fill:#9E616A;}
	.st3{fill:#2F2E41;}
	.st4{fill:#16C1C7;}
	.st5{fill:#F2F2F2;}
	.st6{opacity:0.1;enable-background:new    ;}
	.st7{fill:#F0F0F0;}
	.st8{fill:#B05FFD;}
	.st9{fill:#3F3D56;}
	.st10{fill:#CCCCCC;}
</style>
<path class="st0" d="M738.9,543.1l-68-30v-25.8l24.2-0.1c7.7,0,14.5-5,17-12.3l17-51.1c3.1-9.4-2-19.6-11.4-22.8
	c-1.8-0.6-3.8-0.9-5.7-0.9h-41.2v-24h51.7c8.4,0,15.7-5.8,17.5-14l11.7-51c2.2-9.7-3.8-19.3-13.5-21.6c-1.3-0.3-2.7-0.5-4-0.5h-63.4
	v-6c0-6.6-5.4-12-12-12s-12,5.4-12,12v6h-425v-6c0-6.6-5.4-12-12-12s-12,5.4-12,12v6h-50.4c-9.9,0-18,8.1-18,18c0,1.4,0.2,2.7,0.5,4
	l11.7,51c1.9,8.2,9.2,14,17.5,14h38.7v24h-28.2c-9.9,0-18,8.1-18,18c0,1.9,0.3,3.7,0.9,5.5l17.4,53.9c2.4,7.5,9.4,12.5,17.2,12.5
	l10.7-0.1v23.1l-55,30c-9.9,0-18,8.1-18,18v0v0c0,9.9,8.1,18,18,18h55v132c0,6.6,5.4,12,12,12s12-5.4,12-12v-132h425v132
	c0,6.6,5.4,12,12,12s12-5.4,12-12v-132h68c9.9,0,18-8.1,18-18v0C756.9,551.2,748.8,543.1,738.9,543.1
	C738.9,543.1,738.9,543.1,738.9,543.1z M221.9,376.1h425v24h-425V376.1z M221.9,513.1v-23.3l425-2.4v25.7H221.9z"/>
<path class="st0" d="M689.7,543c7.5-60.1,44.7-119.3,102.1-138.9c-22.6,61.9-22.6,129.7,0,191.6c8.8,23.8,21.1,49.4,12.8,73.4
	c-5.2,14.9-17.8,26.4-31.9,33.5c-14.1,7.1-29.7,10.6-45.2,13.9l-3,2.5C699.9,663.7,682.2,603.1,689.7,543z"/>
<path class="st1" d="M792.3,405.3c-33,37-54.5,84.8-59.3,134.2c-1,10.7-1.2,21.6,1.2,32.2c2.3,10.5,7.4,19.4,14.7,27.3
	c6.6,7.3,14.2,13.9,18.9,22.6c5,9.2,5.2,19.7,1.8,29.4c-4.2,12-12.4,21.7-20.8,31c-9.3,10.3-19.1,20.8-23.1,34.4
	c-0.5,1.7-3,0.8-2.5-0.8c6.9-23.7,29.9-37.2,40.9-58.5c5.1-10,7.3-21.5,2.5-32.1c-4.2-9.2-12-16.1-18.8-23.4
	c-7.1-7.7-12.5-16.1-15.3-26.2c-2.9-10.4-3.2-21.3-2.4-32c1.9-24.2,7.6-47.9,16.9-70.3c10.5-25.6,25.2-49.3,43.7-70
	C791.7,402,793.5,404,792.3,405.3L792.3,405.3z"/>
<path class="st1" d="M733.7,523.4c-17-4.1-28.6-20-27.2-37.5c0.1-1.7,2.8-1.6,2.7,0.1c-1.3,16.3,9.5,31.1,25.4,34.8
	C736.2,521.2,735.4,523.8,733.7,523.4L733.7,523.4z"/>
<path class="st1" d="M745,595.8c14.9-8.9,25.9-23.1,30.8-39.7c0.5-1.6,3-0.8,2.5,0.8c-5.1,17.3-16.6,32.1-32.1,41.3
	C744.7,599,743.5,596.7,745,595.8L745,595.8z"/>
<path class="st1" d="M759.8,450.1c6.2,2.9,13.4,2.6,19.2-1c1.5-0.9,2.7,1.5,1.2,2.4c-6.5,3.9-14.4,4.3-21.2,1.1
	c-0.7-0.3-1.1-1-0.8-1.7C758.4,450.3,759.1,449.9,759.8,450.1L759.8,450.1z"/>
<path class="st0" d="M966.5,511.5c-0.9,0.6-1.8,1.2-2.7,1.8c-12.1,7.9-23.5,16.8-34.1,26.6c-0.8,0.7-1.7,1.5-2.5,2.3
	c-25.4,23.9-46.1,52.2-61.1,83.6c-6,12.5-11,25.4-15,38.7c-5.5,18.3-10,38.6-21,53.6c-1.1,1.6-2.3,3.1-3.7,4.5h-98.8
	c-0.2-0.1-0.5-0.2-0.7-0.3l-3.9,0.2c0.2-0.7,0.3-1.4,0.5-2.1c0.1-0.4,0.2-0.8,0.3-1.2c0.1-0.3,0.1-0.5,0.2-0.8c0-0.1,0-0.2,0.1-0.2
	c0-0.2,0.1-0.5,0.2-0.7c1-4,2-8.1,3.1-12.1c0,0,0,0,0,0c8.1-30.7,18.8-61,33.8-88.7c0.5-0.8,0.9-1.7,1.4-2.5
	c6.8-12.5,14.7-24.3,23.4-35.5c4.8-6.1,9.9-12,15.3-17.6c14-14.4,30.2-26.5,47.9-35.9c35.4-18.7,76.4-25.9,114.3-14.4
	C964.6,510.9,965.5,511.2,966.5,511.5z"/>
<path class="st1" d="M966.3,512.8c-48.7,9.6-94.6,34.9-128.2,71.5c-7.3,7.9-14,16.6-18.4,26.4c-4.5,9.8-5.7,20-4.8,30.6
	c0.9,9.8,3,19.7,1.5,29.5c-1.6,10.4-7.7,18.8-16.3,24.6c-10.5,7-23,9.9-35.2,12.2c-13.6,2.6-27.8,5.1-39.2,13.6
	c-1.4,1-2.9-1.2-1.5-2.2c19.8-14.8,46.3-11.7,67.9-22.1c10.1-4.9,18.8-12.8,21.3-24.1c2.2-9.9,0.1-20.1-0.9-30
	c-1.1-10.4-0.3-20.4,3.5-30.1c4-10,10.3-18.9,17.3-27c16.1-18.2,34.9-33.7,55.8-46c23.8-14.2,49.8-24.2,77-29.6
	C967.7,509.8,967.9,512.4,966.3,512.8L966.3,512.8z"/>
<path class="st1" d="M848.4,571.8c-11.1-13.6-10.8-33.2,0.8-46.3c1.1-1.3,3.2,0.4,2,1.7c-10.8,12.2-11.1,30.5-0.7,43.1
	C851.7,571.6,849.5,573.1,848.4,571.8z"/>
<path class="st1" d="M813.8,636.4c17.3,1.9,34.6-2.8,48.5-13.2c1.4-1,2.9,1.2,1.5,2.2c-14.5,10.7-32.6,15.6-50.5,13.6
	C811.6,638.8,812.1,636.2,813.8,636.4z"/>
<path class="st1" d="M913.3,529c3.2,6,9.1,10.1,15.9,10.8c1.7,0.2,1.2,2.8-0.5,2.6c-7.5-0.8-14.1-5.2-17.6-11.9
	c-0.4-0.6-0.2-1.4,0.3-1.9C912.1,528.3,912.9,528.4,913.3,529z"/>
<path class="st0" d="M23.2,596.4c5.3-42.2,31.4-83.9,71.7-97.6C79,542.3,79,590,94.9,633.5c6.2,16.7,14.8,34.7,9,51.6
	c-3.6,10.5-12.5,18.5-22.4,23.6c-9.9,5-20.9,7.4-31.8,9.8l-2.1,1.8C30.4,681.2,17.9,638.7,23.2,596.4z"/>
<path class="st1" d="M95.3,499.6c-23.5,26.3-38,59.3-41.7,94.3c-0.7,7.5-0.8,15.2,0.8,22.6c1.7,7.2,5.2,13.8,10.3,19.2
	c4.6,5.1,10,9.8,13.3,15.9c3.5,6.5,3.6,13.8,1.2,20.7c-2.9,8.4-8.7,15.3-14.6,21.8c-6.5,7.2-13.4,14.6-16.2,24.2
	c-0.3,1.2-2.1,0.6-1.8-0.6c4.8-16.7,21-26.1,28.7-41.1c3.6-7,5.1-15.1,1.7-22.5c-3-6.5-8.5-11.3-13.2-16.4
	c-5-5.4-8.8-11.3-10.8-18.4c-2-7.3-2.2-15-1.7-22.5c1.3-17,5.4-33.7,11.9-49.4c7.3-18,17.7-34.6,30.7-49.2
	C94.9,497.3,96.1,498.7,95.3,499.6z"/>
<path class="st1" d="M54.1,582.6c-12-2.9-20.1-14.1-19.1-26.3c0.1-1.2,2-1.1,1.9,0.1c-0.9,11.4,6.7,21.8,17.9,24.5
	C55.9,581.1,55.3,582.9,54.1,582.6L54.1,582.6z"/>
<path class="st1" d="M62.1,633.5c10.5-6.3,18.2-16.2,21.6-27.9c0.3-1.2,2.1-0.6,1.8,0.6c-3.6,12.2-11.7,22.5-22.6,29
	C61.9,635.8,61,634.1,62.1,633.5L62.1,633.5z"/>
<path class="st1" d="M72.5,531.1c4.3,2.1,9.4,1.8,13.5-0.7c1-0.6,1.9,1,0.8,1.7c-4.5,2.7-10.1,3-14.9,0.8c-0.5-0.2-0.7-0.7-0.6-1.2
	C71.5,531.2,72,531,72.5,531.1z"/>
<path class="st0" d="M217.7,574.3c-0.6,0.4-1.3,0.8-1.9,1.3c-8.5,5.6-16.5,11.8-24,18.7c-0.6,0.5-1.2,1.1-1.7,1.6
	c-17.8,16.8-32.4,36.7-42.9,58.8c-4.2,8.8-7.7,17.9-10.5,27.2c-3.9,12.9-7.1,27.1-14.7,37.7c-0.8,1.1-1.6,2.2-2.6,3.2H49.9
	c-0.2-0.1-0.3-0.1-0.5-0.2l-2.8,0.1c0.1-0.5,0.2-1,0.3-1.5c0.1-0.3,0.1-0.6,0.2-0.9c0-0.2,0.1-0.4,0.1-0.6c0-0.1,0-0.1,0-0.2
	c0-0.2,0.1-0.3,0.1-0.5c0.7-2.8,1.4-5.7,2.2-8.5c0,0,0,0,0,0c5.7-21.6,13.2-42.9,23.8-62.4c0.3-0.6,0.6-1.2,1-1.8
	c4.8-8.8,10.3-17.1,16.5-25c3.4-4.3,7-8.4,10.8-12.3c9.8-10.1,21.2-18.6,33.7-25.2c24.9-13.1,53.7-18.2,80.3-10.2
	C216.4,573.8,217,574,217.7,574.3z"/>
<path class="st1" d="M217.6,575.1c-34.6,6.9-66.1,24.4-90.1,50.2c-5.1,5.6-9.8,11.6-13,18.5c-3,6.8-4.2,14.2-3.3,21.5
	c0.6,6.9,2.1,13.8,1,20.7c-1.1,7.3-5.4,13.2-11.5,17.3c-7.4,4.9-16.1,6.9-24.8,8.6c-9.6,1.8-19.5,3.6-27.5,9.6c-1,0.7-2-0.8-1.1-1.5
	c13.9-10.4,32.5-8.2,47.7-15.6c7.1-3.4,13.2-9,14.9-16.9c1.5-6.9,0.1-14.1-0.7-21.1c-0.7-7.3-0.2-14.3,2.5-21.2
	c2.8-7,7.2-13.3,12.2-19c11.3-12.8,24.5-23.7,39.2-32.3c16.7-10,35-17,54.1-20.8C218.6,573,218.7,574.9,217.6,575.1L217.6,575.1z"/>
<path class="st1" d="M134.7,616.6c-7.8-9.5-7.6-23.3,0.6-32.6c0.8-0.9,2.2,0.3,1.4,1.2c-7.6,8.6-7.8,21.5-0.5,30.3
	C137,616.5,135.5,617.5,134.7,616.6L134.7,616.6z"/>
<path class="st1" d="M110.4,662c12.1,1.3,24.3-2,34.1-9.3c1-0.7,2,0.8,1.1,1.5c-10.2,7.5-22.9,11-35.5,9.6
	C108.9,663.7,109.2,661.9,110.4,662z"/>
<path class="st1" d="M180.3,586.6c2.2,4.2,6.4,7.1,11.2,7.6c1.2,0.1,0.9,2-0.3,1.8c-5.3-0.6-9.9-3.7-12.4-8.4
	c-0.3-0.4-0.2-1,0.2-1.3C179.5,586,180,586.1,180.3,586.6z"/>
<polygon class="st2" points="369.2,700.3 351.3,705.5 322.9,638.9 349.3,631.3 "/>
<path class="st3" d="M412,459.2l-18.5,19.7c0,0-97.2,43.1-97.2,65.2s23.4,118.1,33.2,125.5c5.9,4.5,3.2,9.3,6.2,16.1l34.4-12.4
	c0,0-2.5-7.4,0-11.1c2.5-3.7,0-6.2,0-6.2s-3.7,1.2-2.5-2.5s1.2-4.9,0-6.2c-1.2-1.2-4.9-12.3-4.9-12.3s1.2-44.3-16-60.3
	c0,0,80-23.4,89.8-39.4s12.3-73.8,12.3-73.8L412,459.2z"/>
<path class="st3" d="M376.5,710.5l-59.6,12.3l-0.2-0.8c-2.6-12.8,5.6-25.3,18.4-28l0,0l9.2-10.5l22,4.1l5.2-1.1L376.5,710.5z"/>
<polygon class="st2" points="434.3,625.6 411.5,640.9 458.8,695.6 474.3,685.2 "/>
<path class="st3" d="M468.4,425.3c-12.2-25.7,25,50.3,20.1,73.9c-3.8,18.4-75.6,76.9-75.6,76.9c21.6,9.2,35.5,51.3,35.5,51.3
	s7.2,9.2,8.8,9.9s2,1.9,2.1,5.8s3.1,1.5,3.1,1.5s3.1,1.5,2.1,5.8s3.8,10.4,3.8,10.4l-26.6,24.8c-5.1-5.4-5.8-12.3-12.8-14.5
	c-11.8-3.6-66.3-86-73.8-106.8s69.4-94.3,69.4-94.3l6.5-36.4L468.4,425.3z"/>
<path class="st3" d="M482.1,703.6l-57.3,20.6l-0.3-0.7c-4.4-12.3,2-25.9,14.3-30.3l0,0l7.6-11.7l22.4,0.9l5-1.8L482.1,703.6z"/>
<path class="st4" d="M424.8,302.4l-16.6,12.6l-44,11.7c0,0,15.8,110.7,8.3,118.2s-0.7,7.6-2.2,17.3s-5.1,29.5-5.1,29.5
	c50.3,26.6,93.6,27.3,128.4-3.8c0.9-4-1.1-8-4.7-9.8c-6.5-3.4,6-19.5,0.7-22.2s2.2-26,2.2-26l16.1-76.2l-42.9-33.6l-6.5-15.7
	L424.8,302.4z"/>
<circle class="st5" cx="445.4" cy="395.7" r="5.7"/>
<circle class="st2" cx="441.7" cy="262.6" r="32.8"/>
<polygon class="st6" points="489.5,391.1 494.9,395.2 497.6,376.2 "/>
<path class="st4" d="M366.7,326.6c0,0-6.8-1.4-10.8,10.8c-4.1,12.2-24.5,76.4-24.5,84.5s98.3,25.9,98.3,25.9l-9.7-33.9l-44.7-14
	L366.7,326.6z"/>
<circle class="st2" cx="434.1" cy="427" r="15.8"/>
<polygon class="st6" points="378.3,383.9 379.6,400.7 418.9,421.3 383.9,397.8 "/>
<path class="st7" d="M470.8,377.3h-0.5v-14c0-4.5-3.6-8.1-8.1-8.1l0,0h-29.6c-4.5,0-8.1,3.6-8.1,8.1l0,0v76.6c0,4.5,3.6,8.1,8.1,8.1
	l0,0h29.6c4.5,0,8.1-3.6,8.1-8.1l0,0v-52.7h0.5V377.3z"/>
<path class="st4" d="M507.8,353.8c0,0,4.1,2.7,6.8,14.9s20.3,58.3,13.5,69.1s-8.8,22.4-31.8,6.1l-31.9-29.2l23-21.7l9.5,6.8
	L507.8,353.8z"/>
<circle class="st8" cx="447.8" cy="382.6" r="6.8"/>
<circle class="st2" cx="467.4" cy="397.4" r="15.8"/>
<polygon class="st6" points="372.9,436.9 421.7,446 374.2,447.8 "/>
<path id="ac86dcea-12c8-45fb-8feb-523bbd8ea0ee" class="st3" d="M470.6,241c0,0,8.5-16.3-10.2-17.8c0,0-16-14.5-32.3-2.7
	c0,0-8.9,0-13.8,10.1c0,0-7-2.7-8.5,4.5c0,0-5.1,14.8,0,28.2s6.8,14.8,6.8,14.8s-3.6-16.6,16.9-18.1s39.3-14.3,41,2s3.6,8.9,3.6,8.9
	S490.2,247.6,470.6,241z"/>
<path class="st9" d="M789.1,205.7H523.6c-8.5,0-15.3,6.9-15.3,15.3v63.8c0,8.5,6.9,15.3,15.3,15.3h3.9v11.5c0,2,1.6,3.5,3.5,3.5
	c0.9,0,1.8-0.4,2.5-1l14-14h241.5c8.5,0,15.3-6.9,15.3-15.3v-63.8C804.4,212.6,797.6,205.7,789.1,205.7z"/>
<path class="st1" d="M789.1,292.5H523.6c-4.2,0-7.6-3.4-7.6-7.6v-63.8c0-4.2,3.4-7.6,7.6-7.6h201.6c39.4,0,71.4,32,71.4,71.4
	C796.6,289.1,793.3,292.5,789.1,292.5z"/>
<path class="st4" d="M599.9,227.5h113.5c2.4,0,4.3,1.9,4.3,4.3v1.4c0,2.4-1.9,4.3-4.3,4.3H599.9c-2.4,0-4.3-1.9-4.3-4.3v-1.4
	C595.6,229.4,597.5,227.5,599.9,227.5z"/>
<path class="st0" d="M576.1,247.6h161.1c2.4,0,4.3,1.9,4.3,4.3v1.4c0,2.4-1.9,4.3-4.3,4.3H576.1c-2.4,0-4.3-1.9-4.3-4.3v-1.4
	C571.7,249.5,573.7,247.6,576.1,247.6z"/>
<path class="st0" d="M576.1,267.7h161.1c2.4,0,4.3,1.9,4.3,4.3v1.4c0,2.4-1.9,4.3-4.3,4.3H576.1c-2.4,0-4.3-1.9-4.3-4.3V272
	C571.7,269.6,573.7,267.7,576.1,267.7z"/>
<path class="st5" d="M955.5,0H748.5c-6.6,0-12,5.4-12,12c0,0,0,0,0,0v49.8c0,6.6,5.4,12,12,12h0h3v9c0,1.5,1.2,2.8,2.8,2.8
	c0.7,0,1.4-0.3,2-0.8l10.9-10.9h188.2c6.6,0,12-5.4,12-12v0V12C967.4,5.4,962.1,0,955.5,0z"/>
<path class="st1" d="M955.5,67.6H748.5c-3.3,0-5.9-2.6-5.9-5.9V12c0-3.3,2.6-5.9,5.9-5.9h157.2c30.7,0,55.6,24.9,55.7,55.7
	C961.4,65,958.7,67.6,955.5,67.6z"/>
<path class="st5" d="M808.5,17h87.4c2.2,0,3.9,1.8,3.9,3.9v0c0,2.2-1.8,3.9-3.9,3.9h-87.4c-2.2,0-3.9-1.8-3.9-3.9v0
	C804.6,18.7,806.4,17,808.5,17z"/>
<path class="st5" d="M790,32.6h124.5c2.2,0,3.9,1.8,3.9,3.9v0c0,2.2-1.8,3.9-3.9,3.9H790c-2.2,0-3.9-1.8-3.9-3.9v0
	C786,34.4,787.8,32.6,790,32.6z"/>
<path class="st5" d="M790,48.3h124.5c2.2,0,3.9,1.8,3.9,3.9v0c0,2.2-1.8,3.9-3.9,3.9H790c-2.2,0-3.9-1.8-3.9-3.9v0
	C786,50,787.8,48.3,790,48.3z"/>
<path class="st5" d="M492.6,82h206.9c6.6,0,12,5.4,12,12c0,0,0,0,0,0v49.8c0,6.6-5.4,12-12,12h0h-3v9c0,1.5-1.2,2.8-2.8,2.8
	c-0.7,0-1.4-0.3-2-0.8l-10.9-10.9H492.6c-6.6,0-12-5.4-12-12c0,0,0,0,0,0V94C480.6,87.4,486,82,492.6,82C492.6,82,492.6,82,492.6,82
	z"/>
<path class="st1" d="M486.7,143.7c0-30.7,24.9-55.6,55.7-55.7h157.2c3.3,0,5.9,2.6,5.9,5.9v49.8c0,3.3-2.6,5.9-5.9,5.9H492.6
	C489.3,149.6,486.7,147,486.7,143.7z"/>
<path class="st5" d="M639.5,106.8h-87.4c-2.2,0-3.9-1.8-3.9-3.9v0c0-2.2,1.8-3.9,3.9-3.9h87.4c2.2,0,3.9,1.8,3.9,3.9v0
	C643.4,105,641.7,106.8,639.5,106.8z"/>
<path class="st5" d="M658.1,122.4H533.5c-2.2,0-3.9-1.8-3.9-3.9v0c0-2.2,1.8-3.9,3.9-3.9h124.5c2.2,0,3.9,1.8,3.9,3.9v0
	C662,120.7,660.3,122.4,658.1,122.4z"/>
<path class="st5" d="M658.1,138.1H533.5c-2.2,0-3.9-1.8-3.9-3.9v0c0-2.2,1.8-3.9,3.9-3.9h124.5c2.2,0,3.9,1.8,3.9,3.9v0
	C662,136.3,660.3,138.1,658.1,138.1z"/>
<path class="st10" d="M860.5,724.1H1.2c-0.7,0-1.2-0.5-1.2-1.2s0.5-1.2,1.2-1.2c0,0,0,0,0,0h859.3c0.7,0,1.2,0.5,1.2,1.2
	C861.7,723.6,861.1,724.1,860.5,724.1z"/>
</svg>
