<?xml version="1.0" encoding="utf-8"?>
<!-- Generator: Adobe Illustrator 23.1.1, SVG Export Plug-In . SVG Version: 6.00 Build 0)  -->
<svg version="1.1" id="eda1a55b-53a8-43b5-9383-13f99c95cdad"
	 xmlns="http://www.w3.org/2000/svg" xmlns:xlink="http://www.w3.org/1999/xlink" x="0px" y="0px" viewBox="0 0 728.3 598.9"
	 style="enable-background:new 0 0 728.3 598.9;" xml:space="preserve">
<style type="text/css">
	.st0{fill:#F0F0F0;}
	.st1{fill:#FFFFFF;}
	.st2{fill:#E4E4E4;}
	.st3{fill:#16C1C7;}
	.st4{fill:#3F3D56;}
	.st5{fill:#E6E6E6;}
	.st6{fill:#B05FFD;}
	.st7{fill:#CACACA;}
</style>
<path class="st0" d="M592.7,60.2c4.7-19,0.2-41.1-14.8-53.6c-0.3,21.2-8.1,41.7-22,57.8c-5.4,6.2-12,12.5-12.3,20.7
	c-0.2,5.1,2.3,10,5.8,13.8c3.4,3.8,7.8,6.6,12,9.4l0.6,1.1C575.7,95.4,588,79.2,592.7,60.2z"/>
<path class="st1" d="M577.6,6.9c5.8,15.1,6.6,31.7,2.5,47.3c-0.8,3.4-2.2,6.6-4,9.6c-1.9,2.8-4.5,5.1-7.6,6.6
	c-2.8,1.4-5.9,2.6-8.3,4.7c-2.5,2.2-3.9,5.4-3.9,8.7c-0.1,4.1,1.2,8,2.7,11.7c1.6,4.2,3.4,8.5,3,13c0,0.6,0.8,0.6,0.9,0
	c0.7-7.9-4.7-14.6-5.6-22.3c-0.4-3.6,0.3-7.3,2.9-9.9c2.3-2.3,5.5-3.5,8.3-4.9c3-1.4,5.6-3.5,7.6-6.1c2-2.9,3.5-6,4.4-9.4
	c2.2-7.5,3.2-15.3,3-23.1c-0.2-8.9-1.9-17.8-5.1-26.1C578.1,6,577.4,6.4,577.6,6.9L577.6,6.9z"/>
<path class="st1" d="M581.7,49.2c5.6,0.7,10.9-2.7,12.5-8.2c0.2-0.5-0.7-0.8-0.8-0.3c-1.5,5.1-6.4,8.3-11.7,7.6
	C581.1,48.3,581.1,49.1,581.7,49.2L581.7,49.2z"/>
<path class="st1" d="M569.9,69.7c-3.5-4.4-5.2-9.9-4.7-15.5c0-0.6-0.8-0.6-0.9,0c-0.4,5.8,1.3,11.6,4.9,16.1
	C569.7,70.8,570.3,70.2,569.9,69.7z"/>
<path class="st1" d="M582.2,24.1c-2.2,0.2-4.3-0.8-5.7-2.5c-0.3-0.4-1,0.1-0.6,0.6c1.5,1.9,3.8,2.9,6.3,2.8c0.2,0,0.4-0.2,0.4-0.4
	C582.6,24.3,582.4,24.1,582.2,24.1L582.2,24.1z"/>
<path class="st0" d="M512.9,18.9c0.2,0.3,0.4,0.6,0.6,0.8c2.7,3.8,5.1,7.8,7.2,11.9c0.2,0.3,0.3,0.6,0.5,1c4.9,10.1,7.9,21,8.8,32.2
	c0.4,4.5,0.4,8.9,0.1,13.4c-0.4,6.2-1.4,12.8,0.2,18.6c0.2,0.6,0.4,1.2,0.6,1.8l29.8,11.3c0.1,0,0.2,0,0.2,0l1.2,0.5
	c0-0.2,0.1-0.5,0.1-0.7c0-0.1,0-0.3,0.1-0.4c0-0.1,0-0.2,0-0.3c0,0,0-0.1,0-0.1c0-0.1,0-0.2,0-0.2c0.2-1.3,0.3-2.7,0.5-4
	c0,0,0,0,0,0c1.2-10.2,1.2-20.5,0-30.6c0-0.3-0.1-0.6-0.1-0.9c-0.6-4.5-1.6-9-3-13.4c-0.8-2.4-1.6-4.7-2.6-7.1
	c-2.6-6-6-11.5-10.3-16.3c-8.5-9.7-20.1-16.6-32.8-17.5C513.5,18.9,513.2,18.9,512.9,18.9z"/>
<path class="st1" d="M512.8,19.3c13.7,8.6,24.3,21.3,30.4,36.3c1.4,3.2,2.2,6.6,2.5,10.1c0.2,3.4-0.5,6.8-2.1,9.8
	c-1.4,2.8-3.2,5.6-3.8,8.7c-0.7,3.3,0.1,6.6,2.1,9.3c2.4,3.3,5.8,5.6,9.2,7.7c3.8,2.4,7.8,4.7,10.2,8.6c0.3,0.5,1,0,0.7-0.5
	c-4.3-6.7-12.6-8.8-17.9-14.5c-2.5-2.6-4.2-6-3.6-9.7c0.5-3.2,2.3-6.1,3.7-8.9c1.6-2.9,2.4-6.2,2.4-9.5c-0.1-3.5-0.8-6.9-2.1-10.1
	c-2.8-7.3-6.7-14.2-11.5-20.3c-5.5-7-12.2-13-19.8-17.8C512.7,18.2,512.3,19,512.8,19.3L512.8,19.3z"/>
<path class="st1" d="M541.5,50.6c4.9-2.8,7.1-8.8,5.1-14.1c-0.2-0.5-1-0.2-0.8,0.3c1.9,4.9-0.2,10.5-4.7,13.1
	C540.6,50.2,541.1,50.9,541.5,50.6z"/>
<path class="st1" d="M544.5,74.1c-5.4-1.4-10.1-4.8-13.1-9.5c-0.3-0.5-1,0-0.7,0.5c3.1,4.9,8,8.4,13.7,9.9
	C544.9,75.1,545.1,74.2,544.5,74.1z"/>
<path class="st1" d="M526.9,30.3c-1.6,1.5-3.9,2-6,1.4c-0.5-0.1-0.7,0.7-0.2,0.8c2.3,0.6,4.8,0,6.7-1.6c0.2-0.1,0.2-0.4,0.1-0.6
	C527.3,30.2,527.1,30.1,526.9,30.3L526.9,30.3z"/>
<path class="st2" d="M473.5,447.6c-99.8,0-181-81.2-181-181s81.2-181,181-181c10.6,0,21.1,0.9,31.5,2.7c0.5,0.1,0.9,0.6,0.8,1.2
	c-0.1,0.5-0.6,0.9-1.2,0.8c0,0,0,0,0,0c-10.3-1.8-20.7-2.7-31.1-2.7c-98.7,0-179,80.3-179,179s80.3,179,179,179s179-80.3,179-179
	c0-44.6-16.6-87.6-46.7-120.6c-0.4-0.4-0.3-1,0.1-1.4c0.4-0.4,1-0.3,1.4,0.1c30.4,33.3,47.3,76.8,47.2,121.9
	C654.5,366.4,573.3,447.6,473.5,447.6z"/>
<circle class="st3" cx="553.3" cy="111.9" r="35.8"/>
<path class="st1" d="M548.4,130.5c-1.3,0-2.4-0.6-3.2-1.6l-9.8-13c-1.3-1.8-1-4.3,0.8-5.6s4.3-1,5.6,0.8l6.4,8.5L564.6,95
	c1.2-1.8,3.7-2.3,5.5-1.1c1.8,1.2,2.3,3.7,1.1,5.5l-19.5,29.3c-0.7,1.1-1.9,1.7-3.2,1.8C548.5,130.5,548.5,130.5,548.4,130.5z"/>
<path class="st4" d="M468.8,238.5L413.6,84.9l1.4-0.5l-10.2-28.3l-1.4,0.5l-17-47.2c-2.7-7.4-10.8-11.3-18.2-8.6c0,0,0,0,0,0
	l-99.8,35.9c-7.4,2.7-11.3,10.8-8.6,18.2c0,0,0,0,0,0l11.8,32.9l-2.2,0.9l7.5,19.6l1.8-0.7l1.6,4.4l-1.9,0.7l7.5,19.6l1.4-0.6
	L342.2,284c2.6,7.4,10.8,11.3,18.2,8.6c0,0,0,0,0,0l99.8-35.9C467.7,254.1,471.5,245.9,468.8,238.5z"/>
<path class="st1" d="M355.2,287.6c-2.9,0-5.4-1.8-6.4-4.5L265.5,51.6c-1.3-3.6,0.6-7.5,4.1-8.7l21.2-7.6l0,0.7
	c-0.2,4.3,3.2,8,7.5,8.2c1,0,2-0.1,3-0.5l47.1-16.9c2.3-1.1,4-3.2,4.5-5.6c0.5-2.4-0.2-5-1.9-6.8l-0.5-0.6l21.9-7.9
	c3.6-1.3,7.5,0.6,8.7,4.1l79.4,220.8c3.4,9.4-1.5,19.8-10.9,23.2l-92.3,33.2C356.7,287.4,356,287.6,355.2,287.6z"/>
<circle class="st3" cx="347" cy="96.4" r="27"/>
<path class="st5" d="M413.9,135.6l-93.5,33.6c-1.2,0.4-2.6-0.2-3-1.4c-0.4-1.2,0.2-2.6,1.4-3c0,0,0,0,0,0l93.5-33.6
	c1.2-0.4,2.6,0.2,3,1.4C415.8,133.9,415.2,135.2,413.9,135.6z"/>
<path class="st5" d="M386.2,157L355.4,168c-1.2,0.4-2.6-0.2-3-1.4c-0.4-1.2,0.2-2.6,1.4-3c0,0,0,0,0,0l30.8-11.1
	c1.2-0.4,2.6,0.2,3,1.4C388,155.2,387.4,156.5,386.2,157z"/>
<path class="st5" d="M393.5,177.3l-30.8,11.1c-1.2,0.4-2.6-0.2-3-1.4c-0.4-1.2,0.2-2.6,1.4-3c0,0,0,0,0,0l30.8-11.1
	c1.2-0.4,2.6,0.2,3,1.4C395.3,175.5,394.7,176.9,393.5,177.3L393.5,177.3z"/>
<path class="st5" d="M397.2,187.7l-30.8,11.1c-1.2,0.4-2.6-0.2-3-1.4c-0.4-1.2,0.2-2.6,1.4-3c0,0,0,0,0,0l30.8-11.1
	c1.2-0.4,2.6,0.2,3,1.4C399.1,185.9,398.5,187.3,397.2,187.7C397.2,187.7,397.2,187.7,397.2,187.7L397.2,187.7z"/>
<path class="st5" d="M407,160.8l-65.3,23.5c-1.2,0.4-2.6-0.2-3-1.4c-0.4-1.2,0.2-2.6,1.4-3c0,0,0,0,0,0l65.3-23.5
	c1.2-0.4,2.6,0.2,3,1.4C408.9,159,408.3,160.3,407,160.8C407,160.8,407,160.8,407,160.8z"/>
<path class="st6" d="M393.9,213l-11.2,4c-2.1,0.7-4.4-0.3-5.1-2.4c-0.7-2.1,0.3-4.4,2.4-5.1l11.2-4c2.1-0.7,4.4,0.3,5.1,2.4
	C397,210,396,212.3,393.9,213z"/>
<circle class="st1" cx="305.9" cy="34.4" r="1.6"/>
<path class="st0" d="M127.3,121.7c17.4-20.5,45.6-33.4,71.7-26.7c-23.5,17.5-40,42.6-46.6,71.1c-2.5,11-4.2,23.5-13.1,30.4
	c-5.6,4.3-13,5.5-20,4.7c-7-0.8-13.6-3.3-20.2-5.8l-1.7,0.2C101.7,169,109.9,142.2,127.3,121.7z"/>
<path class="st1" d="M198.9,95.6c-21.5,5.8-40.6,18.1-54.7,35.4c-3.1,3.7-5.6,7.8-7.4,12.2c-1.6,4.4-2,9.1-1.2,13.7
	c0.7,4.3,1.9,8.6,1.5,13c-0.5,4.5-2.8,8.7-6.5,11.4c-4.5,3.4-9.9,5-15.2,6.4c-6,1.6-12.2,3.1-16.9,7.2c-0.6,0.5-1.3-0.4-0.7-0.9
	c8.3-7.1,20.1-6.5,29.4-11.8c4.3-2.5,7.9-6.2,8.7-11.3c0.7-4.4-0.6-8.9-1.3-13.2c-0.9-4.5-0.6-9.1,0.7-13.4
	c1.6-4.5,3.9-8.7,6.9-12.5c6.6-8.5,14.5-15.9,23.4-22c10.1-7,21.4-12.2,33.2-15.3C199.5,94.2,199.6,95.4,198.9,95.6L198.9,95.6z"/>
<path class="st1" d="M148.4,125.1c-5.3-5.7-5.7-14.4-1-20.5c0.5-0.6,1.4,0.1,1,0.7c-4.4,5.7-4,13.8,1,19.1
	C149.9,125,148.9,125.7,148.4,125.1L148.4,125.1z"/>
<path class="st1" d="M135,154.8c7.7,0.3,15.2-2.3,21.1-7.2c0.6-0.5,1.3,0.4,0.7,0.9c-6.1,5.2-14,7.9-22,7.5
	C134.1,155.9,134.2,154.7,135,154.8L135,154.8z"/>
<path class="st1" d="M175.9,104.3c1.6,2.6,4.3,4.2,7.4,4.3c0.8,0,0.6,1.2-0.1,1.2c-3.3-0.1-6.4-1.9-8.2-4.8
	c-0.2-0.3-0.2-0.6,0.1-0.8C175.4,104,175.7,104.1,175.9,104.3L175.9,104.3z"/>
<path class="st0" d="M237.7,177.4c-0.5,0-1,0-1.4,0c-6.4,0-12.8,0.5-19.1,1.6c-0.5,0.1-1,0.2-1.5,0.2c-15.2,2.7-29.8,8.2-43,16.2
	c-5.3,3.2-10.3,6.8-15,10.7c-6.5,5.5-13.1,11.9-20.8,14.8c-0.8,0.3-1.6,0.6-2.5,0.8l-36.7-24c-0.1-0.1-0.1-0.2-0.2-0.3l-1.5-0.9
	c0.2-0.2,0.5-0.4,0.7-0.7c0.1-0.1,0.3-0.3,0.4-0.4c0.1-0.1,0.2-0.2,0.3-0.2c0,0,0.1-0.1,0.1-0.1c0.1-0.1,0.2-0.1,0.2-0.2
	c1.3-1.3,2.7-2.5,4.1-3.7c0,0,0,0,0,0c10.5-9.4,21.8-18.1,34.1-24.7c0.4-0.2,0.7-0.4,1.1-0.6c5.6-3,11.4-5.5,17.3-7.5
	c3.3-1.1,6.6-2,10-2.8c8.7-1.9,17.7-2.5,26.5-1.7c17.7,1.7,34.7,9,45.9,22.5C237.1,176.7,237.4,177,237.7,177.4z"/>
<path class="st1" d="M237.3,177.8c-20.6-8.3-43.4-10-65-4.7c-4.7,1.1-9.1,2.9-13.3,5.3c-3.9,2.5-7.1,6-9.2,10.2
	c-2,3.8-3.7,8-6.6,11.3c-3.1,3.4-7.5,5.2-12,5.1c-5.6,0-10.9-1.9-16.1-4c-5.7-2.3-11.6-4.9-17.8-4.5c-0.8,0-0.8-1.1,0-1.2
	c10.9-0.7,20,6.9,30.6,8.3c4.9,0.6,10.1-0.2,13.8-3.8c3.2-3.1,4.9-7.4,6.9-11.3c2-4.1,5-7.6,8.6-10.3c4-2.7,8.4-4.6,13-5.8
	c10.4-2.8,21.2-4,31.9-3.5c12.3,0.5,24.4,3.2,35.8,7.8C238.6,177.1,238,178.1,237.3,177.8L237.3,177.8z"/>
<path class="st1" d="M179.2,171c-0.8-7.7,4.1-14.9,11.6-17c0.7-0.2,1.1,0.9,0.3,1.1c-7,1.9-11.6,8.6-10.7,15.8
	C180.5,171.7,179.3,171.8,179.2,171L179.2,171z"/>
<path class="st1" d="M150.6,186.6c5.9,4.9,13.5,7.4,21.2,6.9c0.8,0,0.8,1.1,0,1.2c-8,0.4-15.9-2.1-22.1-7.2
	C149.2,186.9,150,186.1,150.6,186.6L150.6,186.6z"/>
<path class="st1" d="M213.7,171c-0.3,3,0.9,6,3.3,7.9c0.6,0.5-0.2,1.3-0.8,0.9c-2.6-2.1-4-5.4-3.7-8.7c0-0.3,0.3-0.6,0.6-0.6
	C213.4,170.4,213.7,170.6,213.7,171z"/>
<path class="st0" d="M649.6,515.5c19,4.7,41.1,0.2,53.6-14.8c-21.2-0.3-41.7-8.1-57.8-22c-6.2-5.4-12.5-12-20.7-12.3
	c-5.1-0.2-10,2.3-13.8,5.8c-3.8,3.4-6.6,7.8-9.4,12l-1.1,0.6C614.4,498.6,630.7,510.9,649.6,515.5z"/>
<path class="st1" d="M703,500.4c-15.1,5.8-31.7,6.6-47.3,2.5c-3.4-0.8-6.6-2.2-9.6-4c-2.8-1.9-5.1-4.5-6.6-7.6
	c-1.4-2.8-2.6-5.9-4.7-8.3c-2.2-2.5-5.4-3.9-8.7-3.9c-4.1-0.1-8,1.2-11.7,2.7c-4.2,1.6-8.5,3.4-13,3c-0.6,0-0.6,0.8,0,0.9
	c7.9,0.7,14.6-4.7,22.3-5.6c3.6-0.4,7.3,0.3,9.9,2.9c2.3,2.3,3.5,5.5,4.9,8.3c1.4,3,3.5,5.6,6.1,7.6c2.9,2,6,3.5,9.4,4.4
	c7.5,2.2,15.3,3.2,23.1,3c8.9-0.2,17.8-1.9,26.1-5.1C703.9,501,703.5,500.2,703,500.4L703,500.4z"/>
<path class="st1" d="M660.6,504.5c-0.7,5.6,2.7,10.9,8.2,12.5c0.5,0.2,0.8-0.7,0.3-0.8c-5.1-1.5-8.3-6.4-7.6-11.7
	C661.6,504,660.7,504,660.6,504.5L660.6,504.5z"/>
<path class="st1" d="M640.1,492.8c4.4-3.5,9.9-5.2,15.5-4.7c0.6,0,0.6-0.8,0-0.9c-5.8-0.4-11.6,1.3-16.1,4.9
	C639.1,492.5,639.7,493.1,640.1,492.8L640.1,492.8z"/>
<path class="st1" d="M685.7,505c-0.2-2.2,0.8-4.3,2.5-5.7c0.4-0.3-0.1-1-0.6-0.6c-1.9,1.5-2.9,3.8-2.8,6.3c0,0.2,0.2,0.4,0.4,0.4
	C685.5,505.5,685.7,505.3,685.7,505L685.7,505z"/>
<path class="st0" d="M691,435.7c-0.3,0.2-0.6,0.4-0.8,0.6c-3.8,2.7-7.8,5.1-11.9,7.2c-0.3,0.2-0.6,0.3-1,0.5
	c-10.1,4.9-21,7.9-32.2,8.8c-4.5,0.4-8.9,0.4-13.4,0.1c-6.2-0.4-12.8-1.4-18.6,0.2c-0.6,0.2-1.2,0.4-1.8,0.6l-11.3,29.8
	c0,0.1,0,0.2,0,0.2l-0.5,1.2c0.2,0,0.5,0.1,0.7,0.1c0.1,0,0.3,0,0.4,0.1c0.1,0,0.2,0,0.3,0c0,0,0.1,0,0.1,0c0.1,0,0.2,0,0.2,0
	c1.3,0.2,2.7,0.3,4,0.5c0,0,0,0,0,0c10.2,1.2,20.5,1.2,30.6,0c0.3,0,0.6-0.1,0.9-0.1c4.5-0.6,9-1.6,13.4-3c2.4-0.7,4.7-1.6,7.1-2.6
	c6-2.6,11.5-6,16.3-10.3c9.7-8.5,16.6-20.1,17.5-32.8C690.9,436.3,690.9,436,691,435.7z"/>
<path class="st1" d="M690.6,435.6c-8.6,13.7-21.3,24.3-36.3,30.4c-3.2,1.4-6.6,2.2-10.1,2.5c-3.4,0.2-6.8-0.5-9.8-2.1
	c-2.8-1.4-5.6-3.2-8.7-3.8c-3.3-0.7-6.6,0.1-9.3,2.1c-3.3,2.4-5.6,5.8-7.7,9.2c-2.4,3.8-4.7,7.8-8.6,10.2c-0.5,0.3,0,1,0.5,0.7
	c6.7-4.3,8.8-12.6,14.5-17.9c2.6-2.5,6-4.2,9.7-3.6c3.2,0.5,6.1,2.3,8.9,3.7c2.9,1.6,6.2,2.4,9.5,2.4c3.5-0.1,6.9-0.8,10.1-2.1
	c7.3-2.8,14.2-6.7,20.3-11.5c7-5.5,13-12.2,17.8-19.8C691.6,435.5,690.8,435.2,690.6,435.6L690.6,435.6z"/>
<path class="st1" d="M659.2,464.4c2.8,4.9,8.8,7.1,14.1,5.1c0.5-0.2,0.2-1-0.3-0.8c-4.9,1.9-10.5-0.2-13.1-4.7
	C659.7,463.4,658.9,463.9,659.2,464.4z"/>
<path class="st1" d="M635.8,467.4c1.4-5.4,4.8-10.1,9.5-13.1c0.5-0.3,0-1-0.5-0.7c-4.9,3.1-8.4,8-9.9,13.7
	C634.8,467.8,635.6,467.9,635.8,467.4L635.8,467.4z"/>
<path class="st1" d="M679.6,449.7c-1.5-1.6-2-3.9-1.4-6c0.1-0.5-0.7-0.7-0.8-0.2c-0.6,2.3,0,4.8,1.6,6.7c0.1,0.2,0.4,0.2,0.6,0.1
	C679.7,450.2,679.7,449.9,679.6,449.7L679.6,449.7z"/>
<path class="st4" d="M725.7,333.1l-28.9,48.7l1.1,0.6l-9.8,18.6l-2-1.1l-6.4,10.8l1.6,0.9l-10.5,18.2l-1.8-1l-94.4,158.9
	c-5.2,8.7-16.4,11.5-25,6.4L373.9,489.7c-8.7-5.2-11.5-16.4-6.4-25l151.3-254.6c5.2-8.7,16.4-11.5,25-6.4l175.5,104.3
	C728,313.2,730.8,324.4,725.7,333.1z"/>
<path class="st1" d="M555.7,584.2L379.5,479.5c-2.7-1.6-3.5-5-2-7.7l152.3-256.3c1.6-2.7,5-3.5,7.7-2l176.2,104.7
	c2.7,1.6,3.5,5,2,7.7L563.4,582.3C561.8,584.9,558.3,585.8,555.7,584.2z"/>
<circle class="st1" cx="628" cy="260.3" r="1.6"/>
<path class="st5" d="M618.4,445.5l-147.1-87.4c-1.9-1.1-2.6-3.6-1.4-5.6c1.1-1.9,3.6-2.6,5.6-1.4c0,0,0,0,0,0l147.1,87.4
	c1.9,1.1,2.6,3.6,1.4,5.6C622.9,446,620.4,446.6,618.4,445.5C618.4,445.5,618.4,445.5,618.4,445.5z"/>
<path class="st5" d="M559.7,431.9l-48.4-28.7c-1.9-1.1-2.6-3.6-1.4-5.6s3.6-2.6,5.6-1.4c0,0,0,0,0,0l48.4,28.7
	c1.9,1.1,2.6,3.6,1.4,5.6C564.1,432.4,561.6,433.1,559.7,431.9z"/>
<path class="st5" d="M540.7,463.9l-48.4-28.7c-1.9-1.1-2.6-3.6-1.4-5.6c1.1-1.9,3.6-2.6,5.6-1.4l48.4,28.7c1.9,1.1,2.6,3.6,1.4,5.6
	C545.1,464.4,542.6,465.1,540.7,463.9C540.7,463.9,540.7,463.9,540.7,463.9z"/>
<path class="st5" d="M530.9,480.3l-48.4-28.7c-1.9-1.1-2.6-3.6-1.4-5.6c1.1-1.9,3.6-2.6,5.6-1.4l0,0l48.4,28.7
	c1.9,1.1,2.6,3.6,1.4,5.6C535.4,480.8,532.9,481.5,530.9,480.3C531,480.3,530.9,480.3,530.9,480.3L530.9,480.3z"/>
<path class="st5" d="M577.5,463.8l-102.6-61c-1.9-1.2-2.6-3.7-1.4-5.6c1.1-1.9,3.6-2.5,5.6-1.4l102.6,61c1.9,1.1,2.6,3.6,1.4,5.6
	C581.9,464.3,579.4,465,577.5,463.8C577.5,463.8,577.5,463.8,577.5,463.8z"/>
<path class="st3" d="M557.9,541.8l-17.6-10.4c-3.3-2-4.4-6.2-2.4-9.5c2-3.3,6.2-4.4,9.5-2.4l17.6,10.4c3.3,2,4.4,6.2,2.4,9.5
	C565.4,542.6,561.2,543.7,557.9,541.8L557.9,541.8z"/>
<circle class="st3" cx="590.7" cy="336.3" r="36"/>
<path class="st7" d="M0.4,482.6h487.2v-282c0-4.4-3.6-8-8-8H8.4c-4.4,0-8,3.6-8,8V482.6z"/>
<rect x="15.5" y="203.6" class="st1" width="457.1" height="259.5"/>
<path class="st4" d="M0,475v34.8c0,6.1,4.9,11,11,11c0,0,0,0,0,0h179.8v68.7h-2.4c-0.8,0-1.4,0.6-1.4,1.4c0,0,0,0,0,0v4.8
	c0,0.8,0.6,1.4,1.4,1.4c0,0,0,0,0,0H300c0.8,0,1.4-0.6,1.4-1.4c0,0,0,0,0,0v-4.8c0-0.8-0.6-1.4-1.4-1.4c0,0,0,0,0,0h-2.4v-68.7
	h179.8c6.1,0,11-4.9,11-11v0V475L0,475z"/>
<path class="st5" d="M406.4,290.4H190c-2.8,0-5.1-2.3-5.1-5.1c0-2.8,2.3-5.1,5.1-5.1h216.5c2.8,0,5.1,2.3,5.1,5.1
	C411.6,288.1,409.3,290.4,406.4,290.4z"/>
<path class="st5" d="M333.8,313.6h-71.2c-2.8,0-5.1-2.3-5.1-5.1s2.3-5.1,5.1-5.1h71.2c2.8,0,5.1,2.3,5.1,5.1
	S336.6,313.6,333.8,313.6z"/>
<path class="st5" d="M333.8,360.7h-71.2c-2.8,0-5.1-2.3-5.1-5.1s2.3-5.1,5.1-5.1h71.2c2.8,0,5.1,2.3,5.1,5.1
	S336.6,360.7,333.8,360.7z"/>
<path class="st5" d="M333.8,384.9h-71.2c-2.8,0-5.1-2.3-5.2-5.1s2.3-5.1,5.1-5.2c0,0,0,0,0,0h71.2c2.8,0,5.1,2.3,5.2,5.1
	S336.6,384.9,333.8,384.9C333.8,384.9,333.8,384.9,333.8,384.9z"/>
<path class="st5" d="M373.7,336.8H222.7c-2.8,0-5.1-2.3-5.1-5.1c0-2.8,2.3-5.1,5.1-5.1h151.1c2.8,0,5.1,2.3,5.1,5.1
	C378.9,334.5,376.6,336.8,373.7,336.8z"/>
<path class="st3" d="M402.8,434.3H377c-4.8,0-8.7-3.9-8.7-8.7s3.9-8.7,8.7-8.7l0,0h25.9c4.8,0,8.7,3.9,8.7,8.7
	S407.6,434.3,402.8,434.3z"/>
<circle class="st3" cx="121.9" cy="325.8" r="45"/>
<path class="st7" d="M648.5,598.9H1.2c-0.7,0-1.2-0.5-1.2-1.2c0-0.7,0.5-1.2,1.2-1.2h647.3c0.7,0,1.2,0.5,1.2,1.2
	C649.7,598.4,649.1,598.9,648.5,598.9z"/>
<circle class="st1" cx="243.8" cy="196.4" r="1.7"/>
</svg>
