<?xml version="1.0" encoding="utf-8"?>
<!-- Generator: Adobe Illustrator 23.1.1, SVG Export Plug-In . SVG Version: 6.00 Build 0)  -->
<svg version="1.1" id="a0179547-7667-4cb3-b9ae-32eca47089ab"
	 xmlns="http://www.w3.org/2000/svg" xmlns:xlink="http://www.w3.org/1999/xlink" x="0px" y="0px" viewBox="0 0 926.6 786"
	 style="enable-background:new 0 0 926.6 786;" xml:space="preserve">
<style type="text/css">
	.st0{fill:#3F3D56;}
	.st1{fill:#16C1C7;}
	.st2{fill:#FF6584;}
	.st3{fill:#F0F0F0;}
	.st4{fill:none;}
	.st5{fill:#E4E4E4;}
	.st6{opacity:0.3;fill:#F0F0F0;enable-background:new    ;}
	.st7{fill:#FFB6B6;}
	.st8{fill:#2F2E41;}
	.st9{fill:#F2F2F2;}
	.st10{opacity:0.1;enable-background:new    ;}
	.st11{fill:#B05FFD;}
</style>
<path class="st0" d="M894.2,329.1c-46.3,59.3-133.8,72.8-206.1,52.2c-23.7-6.9-46.5-16.4-68.1-28.4c-12.5-6.8-24.8-14.3-36.8-22.2
	c-3-2-5.9-3.9-8.8-6c-2-1.4-4-2.7-6-4.1c-24.8-17.4-48.5-36.5-71.9-55.5c-58.4-47.4-118.4-96.3-190.1-118.9
	c-14.8-4.7-33.9-6.8-43,5.7c-7.9,10.9-3.1,26.3,3.6,37.9c24.9,43.2,70.1,70.5,115.3,91.4c45.2,21,93.1,38,132.4,68.6
	C554,380.4,584,429.1,576,478.3c-6.9,42.4-41.5,76.8-81.8,91.8c-40.2,15-85.1,12.9-126.9,3.2c-41.8-9.8-81.5-26.8-121.9-41.4
	c-24.3-8.8-56.2-15-72.3,5.3c-13.6,17.1-5.8,44.1,10.8,58.3s39.1,19,60.5,23.3c66.6,13.3,133.2,26.6,199.8,39.9
	c20.4,4.1,41.3,8.3,59.1,19.2c17.8,10.8,32.2,29.8,31.7,50.6c-0.5,20.5-15.5,38.7-34,47.8c-18.4,9.1-39.7,10.5-60.2,9.5
	C363.9,782,143.6,659.9,90.7,644.3c-34-10-71.1-24.7-85.4-57.1c-17.8-40.3,11.5-89.1,51.6-107.5c40-18.4,86.5-14.3,130.1-8.1
	c43.6,6.2,88.7,14.1,131.2,2.3c42.5-11.8,81.4-50.2,77.2-94.1c-3.7-38.2-38-67-74.2-79.6c-28.3-9.9-58.5-12.6-88.2-17.1
	c-8.3-1.2-16.5-2.6-24.6-4.3c-20.9-4.4-41.2-10.9-60.8-19.5c-20.5-9-39.9-20.2-58-33.3c-14.4-10.5-27.9-22.2-40.3-35
	c-1.9-2-3.8-4-5.6-6c-1.8-2-3.5-4-5.2-6C16.3,152.5-0.1,120,4.8,86.4c4.9-33.4,31-61.3,62-74.7C84.8,4,104.1,0.6,123.7,0.1
	c14.3-0.3,28.6,0.7,42.8,3.1c65.4,10.5,125.4,42.2,182,76.6c56.6,34.4,111.8,72.2,173.3,96.7c61.5,24.5,131.6,34.9,194,12.7
	c62.4-22.2,113.7-82.7,110.6-148.9c41.4,35.7,76.6,80.5,92.2,132.8C934.1,225.6,927.9,286,894.2,329.1z"/>
<circle class="st1" cx="595.9" cy="253.4" r="7.3"/>
<circle class="st2" cx="852.9" cy="157.4" r="11.3"/>
<circle class="st2" cx="114.9" cy="511.4" r="4.2"/>
<path class="st2" d="M234.2,272.4c0,3.6-0.4,7.2-1.3,10.7c-8.3-1.2-16.5-2.6-24.6-4.3c-20.9-4.4-41.2-10.9-60.8-19.5
	c7.2-23.4,32.1-36.5,55.5-29.2C221.6,235.8,234.2,253,234.2,272.4z"/>
<circle class="st3" cx="780.9" cy="230.4" r="4.3"/>
<circle class="st3" cx="391.9" cy="698.4" r="4.3"/>
<circle class="st3" cx="452.9" cy="757.4" r="4.3"/>
<circle class="st3" cx="75.9" cy="589.4" r="4.3"/>
<circle class="st3" cx="284.9" cy="510.4" r="4.3"/>
<circle class="st3" cx="263.9" cy="88.4" r="4.3"/>
<circle class="st3" cx="520.9" cy="421.4" r="4.3"/>
<circle class="st3" cx="552.9" cy="495.4" r="4.3"/>
<path class="st4" d="M154.8,163.7c6-1.8,11.8-3.8,17.4-5.9c34-13.1,53.4-30.9,53.4-48.8s-19.5-35.7-53.4-48.8
	c-3.4-1.3-6.8-2.5-10.4-3.7C174.3,91.6,171.8,130.4,154.8,163.7L154.8,163.7z"/>
<path class="st1" d="M169.6,102c0,21.5-5,42.6-14.8,61.8c-1.3,2.5-2.7,5-4.1,7.4c-14.3,24.1-35.7,43.3-61.2,54.8
	c-14.4-10.5-27.9-22.2-40.3-35c-1.9-2-3.8-4-5.6-6c-1.8-2-3.5-4-5.2-6C16.3,152.5-0.1,120,4.8,86.4c4.9-33.4,31-61.3,62-74.7
	C84.8,4,104.1,0.6,123.7,0.1C139,13.6,151.1,30.4,159,49.2c1,2.4,1.9,4.8,2.8,7.2C167,71,169.7,86.5,169.6,102z"/>
<path class="st5" d="M231.6,109c0,20.8-20.3,40.2-57.3,54.4c-7.4,2.9-15.3,5.4-23.6,7.8c-31.1,8.7-68.2,13.5-107.2,13.8
	c-1.8-2-3.5-4-5.2-6c0.4,0,0.8,0,1.3,0c42.3,0,82.5-5.4,115.2-15.2c6-1.8,11.9-3.8,17.4-5.9c34-13.1,53.4-30.9,53.4-48.8
	s-19.5-35.7-53.4-48.8c-3.4-1.3-6.8-2.5-10.4-3.7c-0.9-2.4-1.8-4.8-2.8-7.2c5.3,1.7,10.4,3.4,15.3,5.3
	C211.3,68.8,231.6,88.1,231.6,109z"/>
<circle class="st3" cx="45.9" cy="30.4" r="4.3"/>
<circle class="st3" cx="134.9" cy="57.4" r="4.3"/>
<circle class="st3" cx="88.9" cy="100.4" r="41.3"/>
<path class="st6" d="M852.5,319.2c-9.3,2.7-29.7,4.8-52.2,6c-22.5,1.2-47.2,1.8-71.5,2.3c-42.6,0.9-85.3,1.8-127.9,2.8
	c-5.9,0.1-11.7,0.3-17.6,0.4c-3-2-5.9-3.9-8.8-6c5.2,0,10.5,0,15.6-0.1c22.2-0.4,40.9-2.2,62.3-3c32.9-1.3,68.4-0.3,102.7,0.2
	C789.4,322.4,828.4,322.2,852.5,319.2z"/>
<path class="st6" d="M198.1,634.5L62.2,521.2l132,117.8c0.9,1.5,2.8,2,4.3,1.1c1.5-0.9,2-2.8,1.1-4.3
	C199.3,635.2,198.7,634.7,198.1,634.5L198.1,634.5z"/>
<circle class="st3" cx="94.9" cy="201.4" r="4.3"/>
<polygon class="st7" points="452,694.1 469.6,694.1 478,626.2 452,626.2 "/>
<path class="st8" d="M447.5,688.3l5,0l19.3-7.9l10.4,7.9h0c12.2,0,22.1,9.9,22.1,22.1v0.7l-56.7,0L447.5,688.3z"/>
<polygon class="st7" points="320.3,694.1 302.7,694.1 294.4,626.2 320.3,626.2 "/>
<path class="st8" d="M324.8,711.1l-56.7,0v-0.7c0-12.2,9.9-22.1,22.1-22.1h0l10.4-7.9l19.3,7.9l5,0L324.8,711.1z"/>
<path class="st1" d="M383.3,174.2l-17.8,13.6l-47.3,12.5c0,0,17,119,9,127s-0.8,8.2-2.4,18.6s-8,37.8-8,37.8h141.2
	c0,0,1.1-17.1-5.8-20.7s6.4-20.9,0.7-23.8s2.3-27.9,2.3-27.9l17.3-81.8l-46.1-36.1l-7-16.9L383.3,174.2z"/>
<circle class="st9" cx="405.5" cy="274.3" r="6.2"/>
<path class="st8" d="M316.8,383.7l-5.8,149.9c0,0-25.1,110.7-20.8,113.6s6.2,20.3,6.2,20.3l24.7,2.9c0,0,0-11.6,5.8-16
	s59.7-209.6,59.7-209.6l52.5,198.4c0,0,1.3,11.2,5.7,11.2s5.8,16,5.8,16h24.7v-16c0,0,11.1-3.5,6.8-15.2s-24.2-255.6-24.2-255.6
	L316.8,383.7z"/>
<circle class="st7" cx="401.8" cy="135.4" r="29.8"/>
<polygon class="st10" points="452.9,269.4 458.7,273.8 461.6,253.4 "/>
<path class="st1" d="M321,200.2c0,0-7.3-1.5-11.6,11.6S289,274.4,289,283.1s99.7,47.3,99.7,47.3L378.3,294l-45.7-24L321,200.2z"/>
<circle class="st7" cx="393.3" cy="308" r="17"/>
<polygon class="st10" points="331.3,252 332.6,270 374.9,292.2 337.3,267 "/>
<path class="st3" d="M432.8,254.6h-0.5v-15c0-4.8-3.9-8.7-8.7-8.7c0,0,0,0,0,0h-31.8c-4.8,0-8.7,3.9-8.7,8.7l0,0v82.3
	c0,4.8,3.9,8.7,8.7,8.7l0,0h31.8c4.8,0,8.7-3.9,8.7-8.7l0,0v-56.6h0.5V254.6z"/>
<path class="st1" d="M472.5,229.4c0,0,4.4,2.9,7.3,16s21.8,62.6,14.6,74.2s-9.4,24.1-34.2,6.6l-34.2-31.4l24.7-23.3l10.2,7.3
	L472.5,229.4z"/>
<circle class="st11" cx="408.1" cy="260.3" r="7.3"/>
<circle class="st7" cx="429.2" cy="276.2" r="17"/>
<polygon class="st10" points="330.5,306.4 379.3,328 329.2,318.2 "/>
<path class="st8" d="M371.7,141.4l-4.1-15.6c-1.1-4.1-2.1-8.2-1.9-12.4s2-8.5,5.6-10.8s8.9-1.7,11.2,1.8c0.4-5.6,5.6-10,11-11.5
	s11.2-0.9,16.9-0.7s11.6,0.1,16.5-2.8c0.8,2.3-0.2,4.8-2.3,6c2.5,0.7,5.1-0.7,6-3.2c0,3.3-1.2,6.4-3.4,8.8c4.4-2.2,9.7-0.7,12.2,3.5
	c2.5,4.3,1.1,9.7-0.4,14.5l-7.5,24.5c-1.1-3.7-1.3-7.7-2-11.5s-1.7-7.8-4.2-10.7s-6.8-4.7-10.5-3.2c-2,0.8-3.6,2.5-5.4,3.7
	c-3.7,2.5-8.5,2.8-13,2.3s-8.8-1.8-13.2-2.3c-2.8-0.3-5.9-0.2-8,1.6c-1.4,1.5-2.4,3.4-2.7,5.5c-1,4.1-1.4,8.3-1.2,12.5"/>
</svg>
